<svg width="19" height="20" viewBox="0 0 19 20" fill="none" xmlns="http://www.w3.org/2000/svg">
<path d="M5.72353 7.43497C6.40586 8.85612 7.33601 10.1881 8.51398 11.3661C9.69196 12.544 11.0239 13.4742 12.4451 14.1565C12.5673 14.2152 12.6284 14.2445 12.7058 14.2671C12.9806 14.3472 13.3181 14.2897 13.5509 14.123C13.6164 14.0761 13.6724 14.0201 13.7845 13.908C14.1272 13.5652 14.2986 13.3939 14.4709 13.2818C15.1208 12.8593 15.9586 12.8593 16.6084 13.2818C16.7808 13.3939 16.9521 13.5652 17.2949 13.908L17.4859 14.099C18.0069 14.62 18.2674 14.8805 18.4089 15.1603C18.6904 15.7167 18.6904 16.3738 18.4089 16.9302C18.2674 17.21 18.0069 17.4705 17.4859 17.9915L17.3314 18.146C16.8122 18.6653 16.5525 18.9249 16.1996 19.1232C15.8079 19.3432 15.1996 19.5014 14.7504 19.5C14.3456 19.4988 14.0689 19.4203 13.5155 19.2632C10.5417 18.4192 7.73558 16.8266 5.39451 14.4855C3.05343 12.1445 1.46087 9.33832 0.616808 6.36451C0.459748 5.81115 0.381217 5.53447 0.380013 5.12963C0.378676 4.68041 0.536869 4.07211 0.756881 3.68045C0.955156 3.32749 1.21477 3.06788 1.73399 2.54866L1.88852 2.39412C2.40953 1.87312 2.67003 1.61262 2.9498 1.47111C3.50622 1.18967 4.16332 1.18967 4.71973 1.47111C4.9995 1.61262 5.26 1.87312 5.78101 2.39412L5.97205 2.58516C6.31479 2.9279 6.48616 3.09927 6.5982 3.2716C7.02073 3.92147 7.02073 4.75926 6.5982 5.40913C6.48616 5.58146 6.31479 5.75282 5.97205 6.09556C5.85998 6.20763 5.80395 6.26366 5.75705 6.32916C5.59038 6.56193 5.53283 6.89943 5.61295 7.17427C5.63549 7.25161 5.66484 7.31273 5.72353 7.43497Z" fill="#3F3F3F"/>
<path fill-rule="evenodd" clip-rule="evenodd" d="M12.1821 0.5C12.6019 0.5 12.9421 0.840264 12.9421 1.26L12.9421 4.7899L17.0094 0.7226C17.3062 0.425802 17.7874 0.425802 18.0842 0.7226C18.381 1.0194 18.381 1.5006 18.0842 1.7974L14.0169 5.86471L17.5468 5.86471C17.9666 5.86471 18.3068 6.20497 18.3068 6.62471C18.3068 7.04444 17.9666 7.38471 17.5468 7.38471H13.1305C12.187 7.38471 11.4221 6.61985 11.4221 5.67635L11.4221 1.26C11.4221 0.840263 11.7624 0.5 12.1821 0.5Z" fill="#3F3F3F"/>
</svg>
