<svg width="20" height="16" viewBox="0 0 20 16" fill="none" xmlns="http://www.w3.org/2000/svg">
<path d="M17.6137 0.141264C17.6137 0.141264 19.3897 -0.551304 19.2411 1.13052C19.1922 1.82309 18.7483 4.2473 18.4027 6.86901L17.2187 14.6358C17.2187 14.6358 17.12 15.7737 16.2318 15.9716C15.344 16.1691 14.0119 15.279 13.765 15.0811C13.5675 14.9325 10.0649 12.7062 8.83156 11.6182C8.48596 11.3211 8.09099 10.7277 8.88093 10.0352L14.0608 5.08799C14.6528 4.49462 15.2448 3.10948 12.7781 4.7913L5.87065 9.49071C5.87065 9.49071 5.08117 9.98579 3.60141 9.54054L0.394105 8.55083C0.394105 8.55083 -0.78989 7.80889 1.23296 7.06695C6.16688 4.74193 12.2354 2.36754 17.6128 0.141264H17.6137Z" fill="#3F3F3F"/>
</svg>
