<svg width="126" height="32" viewBox="0 0 126 32" fill="none" xmlns="http://www.w3.org/2000/svg">
<g clip-path="url(#clip0_564_470)">
<path d="M34.9778 0V13.1026C34.9778 22.9787 27.1652 30.9825 17.5243 30.9825H0V24.2697H17.5243C23.0839 24.2697 27.5879 19.236 27.5879 13.1026V6.71288H7.31915L7.35931 15.3976H0V0H34.9778Z" fill="#DD3C3C"/>
<path d="M60.1597 20.9037V31.4856H55.4492V29.0013L55.6423 27.0008H55.5773C54.1582 30.0971 51.06 32.002 47.1241 32.002C40.5431 32.002 39.0265 28.4849 39.0265 25.6467C39.0265 22.4203 41.0595 19.4846 47.8661 19.4846C51.0925 19.4846 54.0607 20.1942 55.4473 20.678V19.871C55.4148 16.9678 53.7375 15.1605 49.6409 15.1605C45.8981 15.1605 44.5441 16.8377 44.3509 18.6451H39.738C40.1243 15.6768 42.0291 11.9341 49.771 11.9341C58.4174 11.9341 60.1597 16.0307 60.1597 20.9018V20.9037ZM55.3536 23.4531C53.7719 22.7435 51.0638 22.2922 48.9658 22.2922C44.7067 22.2922 43.7083 23.8413 43.7083 25.3254C43.7083 26.8095 44.8042 28.3261 48.3863 28.3261C52.8386 28.3261 54.9347 25.6812 55.3555 23.455L55.3536 23.4531Z" fill="#3F3F3F"/>
<path d="M78.0339 31.4531C76.808 31.7438 75.2264 32.0019 73.3885 32.0019C67.7428 32.0019 66.4193 28.6799 66.4193 24.8721V16.1301H62.7741V12.4523H66.4193V8.1626H71.1298V12.4523H77.4525V16.1301H71.1298V24.0345C71.1298 26.5188 71.7437 28.2936 74.7425 28.2936C75.9684 28.2936 77.0662 28.133 77.9039 27.9704L78.032 31.455L78.0339 31.4531Z" fill="#3F3F3F"/>
<path d="M80.5183 25.2259H85.0356C85.2288 27.5802 87.4549 28.5805 90.7463 28.5805C94.294 28.5805 95.52 27.6778 95.52 26.2893C95.52 24.547 93.8752 24.0956 89.8417 23.5468C83.7772 22.7397 81.0021 21.1925 81.0021 17.6429C81.0021 14.579 83.1308 11.9321 89.9393 11.9321C96.7478 11.9321 99.8747 15.126 99.9397 18.1592H95.2292C95.0361 16.5776 93.3263 15.3517 89.7767 15.3517C86.841 15.3517 85.7757 16.1913 85.7757 17.4803C85.7757 19.2551 87.388 19.6739 91.0026 20.0928C97.6161 20.7698 100.294 22.5446 100.294 26.0292C100.294 29.8045 97.1322 31.9981 90.6163 31.9981C83.4865 31.9981 80.5183 28.9974 80.5183 25.224V25.2259Z" fill="#3F3F3F"/>
<path d="M121.103 12.4504H125.814V31.4836H121.103V29.1924L121.297 26.9338H121.232C119.845 29.967 117.135 31.9981 112.843 31.9981C107.521 31.9981 104.101 29.2881 104.101 22.8047V12.4485H108.812V22.2558C108.812 26.2242 110.715 28.1272 114.36 28.1272C119.038 28.1272 121.103 24.6101 121.103 21.2231V12.4485V12.4504Z" fill="#3F3F3F"/>
</g>
<defs>
<clipPath id="clip0_564_470">
<rect width="125.814" height="32" fill="white"/>
</clipPath>
</defs>
</svg>
