<svg width="127" height="32" viewBox="0 0 127 32" fill="none" xmlns="http://www.w3.org/2000/svg">
<g clip-path="url(#clip0_431_2752)">
<path d="M35.6763 0V13.1026C35.6763 22.9787 27.8637 30.9825 18.2227 30.9825H0.698486V24.2697H18.2227C23.7824 24.2697 28.2863 19.236 28.2863 13.1026V6.71288H8.01763L8.0578 15.3976H0.698486V0H35.6763Z" fill="white"/>
<path d="M60.8582 20.9037V31.4855H56.1477V29.0012L56.3408 27.0007H56.2758C54.8567 30.0971 51.7585 32.0019 47.8226 32.0019C41.2416 32.0019 39.725 28.4848 39.725 25.6467C39.725 22.4203 41.758 19.4846 48.5646 19.4846C51.791 19.4846 54.7592 20.1941 56.1458 20.678V19.8709C56.1133 16.9677 54.436 15.1604 50.3394 15.1604C46.5966 15.1604 45.2426 16.8377 45.0494 18.645H40.4365C40.8228 15.6768 42.7276 11.934 50.4695 11.934C59.1159 11.934 60.8582 16.0306 60.8582 20.9017V20.9037ZM56.0521 23.453C54.4704 22.7435 51.7623 22.2921 49.6643 22.2921C45.4052 22.2921 44.4068 23.8413 44.4068 25.3254C44.4068 26.8095 45.5027 28.3261 49.0848 28.3261C53.5371 28.3261 55.6332 25.6811 56.054 23.4549L56.0521 23.453Z" fill="white"/>
<path d="M78.7324 31.453C77.5065 31.7437 75.9249 32.0019 74.087 32.0019C68.4412 32.0019 67.1178 28.6799 67.1178 24.8721V16.1301H63.4726V12.4523H67.1178V8.16257H71.8283V12.4523H78.151V16.1301H71.8283V24.0344C71.8283 26.5188 72.4422 28.2936 75.441 28.2936C76.6669 28.2936 77.7647 28.1329 78.6024 27.9704L78.7305 31.4549L78.7324 31.453Z" fill="white"/>
<path d="M81.2168 25.2259H85.7341C85.9273 27.5802 88.1534 28.5804 91.4448 28.5804C94.9925 28.5804 96.2184 27.6777 96.2184 26.2893C96.2184 24.547 94.5737 24.0956 90.5402 23.5467C84.4757 22.7397 81.7006 21.1924 81.7006 17.6428C81.7006 14.579 83.8292 11.9321 90.6378 11.9321C97.4463 11.9321 100.573 15.126 100.638 18.1592H95.9277C95.7346 16.5776 94.0248 15.3517 90.4752 15.3517C87.5395 15.3517 86.4742 16.1912 86.4742 17.4803C86.4742 19.2551 88.0865 19.6739 91.7011 20.0927C98.3145 20.7698 100.992 22.5446 100.992 26.0292C100.992 29.8044 97.8307 31.9981 91.3148 31.9981C84.185 31.9981 81.2168 28.9974 81.2168 25.224V25.2259Z" fill="white"/>
<path d="M121.802 12.4504H126.512V31.4836H121.802V29.1924L121.995 26.9338H121.93C120.544 29.967 117.834 31.9981 113.542 31.9981C108.219 31.9981 104.8 29.2881 104.8 22.8047V12.4485H109.51V22.2558C109.51 26.2242 111.413 28.1272 115.059 28.1272C119.736 28.1272 121.802 24.6101 121.802 21.2231V12.4485V12.4504Z" fill="white"/>
</g>
<defs>
<clipPath id="clip0_431_2752">
<rect width="125.814" height="32" fill="white" transform="translate(0.698486)"/>
</clipPath>
</defs>
</svg>
